<svg width="724" height="144" viewBox="0 0 724 144" fill="none" xmlns="http://www.w3.org/2000/svg">
<g clip-path="url(#clip0_3264_257)">
<path d="M72 0C32.2356 0 0 32.2356 0 72C0 111.764 32.2356 144 72 144C111.764 144 144 111.764 144 72C143.986 32.2416 111.758 0.0144 72 0ZM108.912 77.52L80.496 105.888C68.6376 117.69 49.4577 117.644 37.656 105.785C25.8852 93.9579 25.8957 74.8383 37.68 63.024L70.272 30.432C71.8683 28.815 74.4732 28.7979 76.0902 30.3942C76.1028 30.4068 76.1154 30.4194 76.128 30.432C77.712 32.0628 77.712 34.6572 76.128 36.288L43.536 68.88C34.944 77.4867 34.944 91.4253 43.536 100.032C52.0851 108.635 65.9892 108.678 74.5914 100.129C74.6238 100.097 74.6559 100.064 74.688 100.032L103.056 71.664C108.252 66.468 108.252 58.044 103.056 52.848C97.86 47.652 89.436 47.652 84.24 52.848L58.944 78.144C57.1545 79.9335 57.1545 82.8345 58.944 84.624C60.7335 86.4135 63.6345 86.4135 65.424 84.624L86.928 63.072C88.5585 61.488 91.1535 61.488 92.784 63.072C94.401 64.6683 94.4181 67.2732 92.8218 68.8902C92.8092 68.9028 92.7969 68.9154 92.784 68.928L71.28 90.48C66.2565 95.5035 58.1115 95.5035 53.088 90.48C48.0645 85.4565 48.0645 77.3115 53.088 72.288L78.384 46.992C86.814 38.562 100.482 38.562 108.912 46.992C117.342 55.422 117.342 69.09 108.912 77.52Z" fill="#3B2CC4"/>
</g>
<path d="M208.9 82.1H182.9V111H166.7V37H213.8V52H182.9V67.5H208.9V82.1ZM241.103 37V111H224.903V37H241.103ZM272.744 37V96H301.944V111H256.544V37H272.744ZM359.11 111H312.11V37H359.11V52H328.31V66.5H355.61V80.7H328.31V96H359.11V111ZM393.129 52V37H451.329V52H430.329V111H414.129V52H393.129ZM526.409 73.9C526.409 96.5 511.509 112.2 490.009 112.2C468.609 112.2 453.909 96.6 453.909 74C453.909 51.4 468.709 35.7 490.109 35.7C511.609 35.7 526.409 51.3 526.409 73.9ZM509.309 73.9C509.309 59.8 502.109 51.3 490.209 51.3C478.209 51.3 471.009 59.8 471.009 73.9C471.009 88.1 478.209 96.6 490.209 96.6C502.109 96.6 509.309 87.9 509.309 73.9ZM606.096 73.9C606.096 96.5 591.196 112.2 569.696 112.2C548.296 112.2 533.596 96.6 533.596 74C533.596 51.4 548.396 35.7 569.796 35.7C591.296 35.7 606.096 51.3 606.096 73.9ZM588.996 73.9C588.996 59.8 581.796 51.3 569.896 51.3C557.896 51.3 550.696 59.8 550.696 73.9C550.696 88.1 557.896 96.6 569.896 96.6C581.796 96.6 588.996 87.9 588.996 73.9ZM633.584 37V96H662.784V111H617.384V37H633.584ZM666.311 58.5C666.311 45.1 677.611 35.6 693.511 35.6C709.411 35.6 719.411 44.4 719.411 58.4H703.311C703.311 53.2 699.411 50 693.311 50C686.711 50 682.511 53 682.511 57.9C682.511 62.4 684.811 64.6 690.011 65.7L701.111 68C714.311 70.7 720.611 77 720.611 88.7C720.611 103 709.411 112.3 692.411 112.3C675.911 112.3 665.211 103.4 665.211 89.5H681.311C681.311 94.9 685.311 97.9 692.511 97.9C699.811 97.9 704.411 95 704.411 90.3C704.411 86.2 702.511 84.1 697.611 83.1L686.311 80.8C673.111 78.1 666.311 70.6 666.311 58.5Z" fill="#322C2C"/>
<defs>
<clipPath id="clip0_3264_257">
<rect width="144" height="144" fill="white"/>
</clipPath>
</defs>
</svg>
